<svg width="143" height="28" viewBox="0 0 143 28" fill="none" xmlns="http://www.w3.org/2000/svg">
<g clip-path="url(#clip0_7423_6666)">
<path fill-rule="evenodd" clip-rule="evenodd" d="M18.6522 8.17971C17.501 7.41055 16.1476 7 14.7632 7V0C17.5321 0 20.2389 0.821086 22.5412 2.35943C24.8435 3.89776 26.6378 6.08427 27.6975 8.64241C28.7571 11.2006 29.0344 14.0155 28.4942 16.7313C27.954 19.447 26.6206 21.9416 24.6627 23.8995C22.7048 25.8574 20.2102 27.1908 17.4944 27.731C14.7787 28.2712 11.9637 27.9939 9.40559 26.9343C6.84744 25.8747 4.66094 24.0803 3.12261 21.778C1.58427 19.4757 0.763184 16.7689 0.763184 14H7.76318C7.76318 15.3845 8.17373 16.7378 8.94289 17.889C9.71205 19.0401 10.8053 19.9373 12.0844 20.4672C13.3635 20.997 14.771 21.1356 16.1288 20.8655C17.4867 20.5954 18.7339 19.9287 19.713 18.9498C20.6919 17.9708 21.3586 16.7235 21.6286 15.3656C21.8988 14.0078 21.7602 12.6003 21.2303 11.3212C20.7005 10.0421 19.8033 8.94887 18.6522 8.17971Z" fill="#0E121B"/>
<path fill-rule="evenodd" clip-rule="evenodd" d="M7.76318 3.69945e-06C7.76318 0.919257 7.58213 1.82951 7.23034 2.67879C6.87856 3.52807 6.36294 4.29974 5.71293 4.94975C5.06292 5.59976 4.29125 6.11538 3.44197 6.46716C2.59269 6.81894 1.68243 7 0.763184 7L0.763184 14C2.60169 14 4.42219 13.6379 6.12076 12.9343C7.81932 12.2308 9.36268 11.1995 10.6627 9.89947C11.9627 8.5995 12.9939 7.05614 13.6975 5.35757C14.4011 3.65901 14.7632 1.8385 14.7632 0L7.76318 3.69945e-06Z" fill="#0E121B"/>
<path d="M88.6955 10.1157H85.2991V20.9043H88.6955V10.1157Z" fill="#0E121B"/>
<path d="M85.679 8.09652C86.0339 8.4517 86.4777 8.62929 87.0104 8.62929C87.5431 8.62929 87.9799 8.4517 88.3201 8.09652C88.661 7.72657 88.8311 7.28256 88.8311 6.7646C88.8311 6.23184 88.661 5.78785 88.3201 5.43268C87.9799 5.07749 87.5431 4.8999 87.0104 4.8999C86.4777 4.8999 86.0339 5.07749 85.679 5.43268C85.3381 5.78785 85.168 6.23184 85.168 6.7646C85.168 7.28256 85.3381 7.72657 85.679 8.09652Z" fill="#0E121B"/>
<path d="M36.5725 20.9058V5.2334H40.0577V17.8424H47.006V20.9058H36.5725Z" fill="#0E121B"/>
<path fill-rule="evenodd" clip-rule="evenodd" d="M53.2823 21.1496C52.1724 21.1496 51.166 20.9054 50.2633 20.417C49.3753 19.9138 48.6724 19.2331 48.1544 18.3747C47.6364 17.5163 47.3774 16.5544 47.3774 15.4889C47.3774 14.4233 47.6364 13.4688 48.1544 12.6252C48.6724 11.7817 49.3753 11.1157 50.2633 10.6274C51.1512 10.1241 52.1576 9.87256 53.2823 9.87256C54.407 9.87256 55.4134 10.1168 56.3013 10.6051C57.1893 11.0935 57.8923 11.7669 58.4102 12.6252C58.9282 13.4688 59.1872 14.4233 59.1872 15.4889C59.1872 16.5544 58.9282 17.5163 58.4102 18.3747C57.8923 19.2331 57.1893 19.9138 56.3013 20.417C55.4134 20.9054 54.407 21.1496 53.2823 21.1496ZM53.2823 18.064C53.7707 18.064 54.1998 17.9604 54.5699 17.7532C54.9398 17.5312 55.221 17.2278 55.4134 16.843C55.6206 16.4435 55.7242 15.992 55.7242 15.4889C55.7242 14.9857 55.6206 14.5491 55.4134 14.1792C55.2062 13.7944 54.9176 13.4984 54.5476 13.2912C54.1924 13.0692 53.7707 12.9582 53.2823 12.9582C52.8087 12.9582 52.387 13.0692 52.017 13.2912C51.647 13.4984 51.3584 13.7944 51.1512 14.1792C50.944 14.564 50.8405 15.0079 50.8405 15.5111C50.8405 15.9994 50.944 16.4435 51.1512 16.843C51.3584 17.2278 51.647 17.5312 52.017 17.7532C52.387 17.9604 52.8087 18.064 53.2823 18.064Z" fill="#0E121B"/>
<path fill-rule="evenodd" clip-rule="evenodd" d="M61.8779 25.1239C62.7806 25.5383 63.8239 25.7455 65.0079 25.7455C66.1622 25.7455 67.1908 25.5161 68.0935 25.0573C68.9963 24.5985 69.7066 23.9622 70.2246 23.1483C70.7425 22.3343 71.0019 21.3724 71.0019 20.2624V10.1175H67.6717V10.8424C67.4241 10.6339 67.1428 10.4589 66.8282 10.3173C66.251 10.0361 65.5924 9.89551 64.8525 9.89551C63.861 9.89551 62.9804 10.1323 62.2109 10.6059C61.4412 11.0646 60.8345 11.701 60.3905 12.515C59.9465 13.3142 59.7246 14.2169 59.7246 15.2233C59.7246 16.2148 59.9465 17.1175 60.3905 17.9315C60.8345 18.7455 61.4412 19.3893 62.2109 19.8628C62.9804 20.3364 63.861 20.5732 64.8525 20.5732C65.5777 20.5732 66.2362 20.4326 66.8282 20.1514C67.1149 20.0152 67.3739 19.8547 67.6051 19.6698V20.3512C67.6051 21.1059 67.361 21.6905 66.8726 22.1049C66.399 22.5193 65.7405 22.7264 64.8969 22.7264C64.2162 22.7264 63.6316 22.6081 63.1432 22.3713C62.6696 22.1345 62.2404 21.7867 61.8556 21.3279L59.769 23.4146C60.2869 24.1546 60.9899 24.7244 61.8779 25.1239ZM66.7172 17.2433C66.3768 17.4505 65.9699 17.5541 65.4963 17.5541C65.0227 17.5541 64.6083 17.4505 64.2531 17.2433C63.9127 17.0361 63.6464 16.7549 63.454 16.3998C63.2616 16.0298 63.1654 15.6376 63.1654 15.2233C63.1654 14.7793 63.2616 14.3797 63.454 14.0245C63.6464 13.6693 63.9201 13.3882 64.2753 13.181C64.6305 12.9738 65.0375 12.8702 65.4963 12.8702C65.9699 12.8702 66.3768 12.9738 66.7172 13.181C67.0724 13.3882 67.3387 13.6693 67.5164 14.0245C67.7087 14.3797 67.8049 14.7793 67.8049 15.2233C67.8049 15.6672 67.7087 16.0668 67.5164 16.422C67.3387 16.7624 67.0724 17.0361 66.7172 17.2433Z" fill="#0E121B"/>
<path fill-rule="evenodd" clip-rule="evenodd" d="M78.1491 21.1496C77.0389 21.1496 76.0323 20.9054 75.13 20.417C74.2417 19.9138 73.5389 19.2331 73.0209 18.3747C72.5029 17.5163 72.2439 16.5544 72.2439 15.4889C72.2439 14.4233 72.5029 13.4688 73.0209 12.6252C73.5389 11.7817 74.2417 11.1157 75.13 10.6274C76.0176 10.1241 77.0242 9.87256 78.1491 9.87256C79.2733 9.87256 80.2799 10.1168 81.1675 10.6051C82.0558 11.0935 82.7586 11.7669 83.2766 12.6252C83.7946 13.4688 84.0536 14.4233 84.0536 15.4889C84.0536 16.5544 83.7946 17.5163 83.2766 18.3747C82.7586 19.2331 82.0558 19.9138 81.1675 20.417C80.2799 20.9054 79.2733 21.1496 78.1491 21.1496ZM78.1491 18.064C78.637 18.064 79.0661 17.9604 79.4364 17.7532C79.806 17.5312 80.0874 17.2278 80.2799 16.843C80.4871 16.4435 80.5907 15.992 80.5907 15.4889C80.5907 14.9857 80.4871 14.5491 80.2799 14.1792C80.0727 13.7944 79.7843 13.4984 79.414 13.2912C79.0591 13.0692 78.637 12.9582 78.1491 12.9582C77.6752 12.9582 77.2531 13.0692 76.8835 13.2912C76.5132 13.4984 76.2248 13.7944 76.0176 14.1792C75.8104 14.564 75.7068 15.0079 75.7068 15.5111C75.7068 15.9994 75.8104 16.4435 76.0176 16.843C76.2248 17.2278 76.5132 17.5312 76.8835 17.7532C77.2531 17.9604 77.6752 18.064 78.1491 18.064Z" fill="#0E121B"/>
<path fill-rule="evenodd" clip-rule="evenodd" d="M96.8601 21.1281C96.1356 21.1281 95.4692 20.9876 94.8623 20.7064C94.5431 20.5584 94.2547 20.3817 93.9971 20.1763V25.4569H90.6448V10.1175H94.0412V10.8621C94.2876 10.6606 94.5613 10.4864 94.8623 10.3395C95.4692 10.0435 96.1356 9.89551 96.8601 9.89551C97.8814 9.89551 98.7844 10.1397 99.5684 10.6281C100.368 11.1164 100.989 11.7824 101.433 12.626C101.892 13.4696 102.121 14.4315 102.121 15.5118C102.121 16.5922 101.892 17.5541 101.433 18.3977C100.989 19.2413 100.368 19.9072 99.5684 20.3956C98.7844 20.884 97.8814 21.1281 96.8601 21.1281ZM96.2392 18.0647C96.7271 18.0647 97.1492 17.9537 97.5041 17.7317C97.8744 17.5098 98.1628 17.2063 98.37 16.8216C98.5772 16.4368 98.6808 16.0002 98.6808 15.5118C98.6808 15.0087 98.5772 14.5647 98.37 14.1799C98.1628 13.7951 97.8744 13.4992 97.5041 13.292C97.1492 13.0699 96.7348 12.959 96.2609 12.959C95.7877 12.959 95.3656 13.0699 94.996 13.292C94.6404 13.4992 94.3597 13.7951 94.1525 14.1799C93.9453 14.5647 93.8417 15.0087 93.8417 15.5118C93.8417 16.0002 93.9376 16.4368 94.1301 16.8216C94.3373 17.2063 94.6257 17.5098 94.996 17.7317C95.3656 17.9537 95.78 18.0647 96.2392 18.0647Z" fill="#0E121B"/>
<path d="M105.446 20.9273C106.067 21.0901 106.696 21.1714 107.332 21.1714C108.679 21.1714 109.744 20.8607 110.529 20.2391C111.328 19.6176 111.727 18.7814 111.727 17.7306C111.727 17.0499 111.602 16.5023 111.35 16.088C111.099 15.6588 110.773 15.3184 110.374 15.0668C109.974 14.8152 109.552 14.6154 109.108 14.4674C108.664 14.3194 108.242 14.1936 107.843 14.09C107.443 13.9864 107.118 13.868 106.866 13.7348C106.615 13.6016 106.489 13.424 106.489 13.2021C106.489 12.9949 106.585 12.8395 106.777 12.7359C106.969 12.6175 107.258 12.5583 107.643 12.5583C108.043 12.5583 108.449 12.6397 108.864 12.8025C109.293 12.9653 109.678 13.2465 110.018 13.6461L111.949 11.6926C111.461 11.071 110.825 10.6048 110.04 10.2941C109.271 9.96848 108.428 9.80566 107.51 9.80566C106.637 9.80566 105.875 9.95364 105.224 10.2496C104.572 10.5456 104.069 10.9526 103.714 11.4705C103.359 11.9737 103.181 12.5731 103.181 13.2687C103.181 13.9198 103.307 14.46 103.558 14.8892C103.81 15.3035 104.136 15.6292 104.535 15.8659C104.935 16.1027 105.357 16.2877 105.8 16.4209C106.244 16.5541 106.666 16.6799 107.066 16.7983C107.465 16.9019 107.791 17.0277 108.043 17.1757C108.309 17.3089 108.442 17.5087 108.442 17.775C108.442 17.9822 108.331 18.145 108.109 18.2634C107.902 18.3818 107.599 18.441 107.199 18.441C106.622 18.441 106.089 18.3374 105.601 18.1302C105.112 17.9082 104.69 17.6049 104.335 17.2201L102.404 19.1736C102.774 19.5731 103.218 19.9284 103.736 20.2391C104.269 20.5351 104.839 20.7644 105.446 20.9273Z" fill="#0E121B"/>
<path d="M117.921 21.1485C116.93 21.1485 116.05 20.9487 115.28 20.5492C114.525 20.1348 113.933 19.5724 113.504 18.862C113.075 18.1369 112.86 17.3082 112.86 16.3758V10.1157H116.257V16.3314C116.257 16.7013 116.316 17.0195 116.435 17.2859C116.568 17.5523 116.76 17.7595 117.011 17.9075C117.263 18.0555 117.566 18.1295 117.921 18.1295C118.425 18.1295 118.824 17.9741 119.12 17.6633C119.417 17.3377 119.564 16.8938 119.564 16.3314V10.1157H122.961V16.3536C122.961 17.3007 122.746 18.1369 122.317 18.862C121.888 19.5724 121.296 20.1348 120.541 20.5492C119.786 20.9487 118.913 21.1485 117.921 21.1485Z" fill="#0E121B"/>
<path d="M128.045 10.1175H124.648V20.9062H128.045V14.6017C128.045 14.2317 128.119 13.9209 128.266 13.6693C128.43 13.4178 128.644 13.2253 128.91 13.0922C129.177 12.9441 129.48 12.8702 129.82 12.8702C130.309 12.8702 130.716 13.0256 131.041 13.3364C131.382 13.6323 131.552 14.0541 131.552 14.6017V20.9062H134.949V14.6017C134.949 14.2317 135.023 13.9209 135.171 13.6693C135.334 13.4178 135.548 13.2253 135.815 13.0922C136.081 12.9441 136.384 12.8702 136.725 12.8702C137.213 12.8702 137.62 13.0256 137.945 13.3364C138.286 13.6323 138.456 14.0541 138.456 14.6017V20.9062H141.853V14.2243C141.853 13.3216 141.66 12.552 141.275 11.9156C140.905 11.2644 140.395 10.7687 139.744 10.4283C139.107 10.0731 138.374 9.89551 137.546 9.89551C136.702 9.89551 135.94 10.0805 135.259 10.4505C134.817 10.6862 134.431 10.9904 134.1 11.3631C133.791 10.9733 133.416 10.6543 132.973 10.4061C132.381 10.0657 131.708 9.89551 130.953 9.89551C130.154 9.89551 129.436 10.0657 128.8 10.4061C128.523 10.5477 128.271 10.7173 128.045 10.9149V10.1175Z" fill="#0E121B"/>
</g>
<defs>
<clipPath id="clip0_7423_6666">
<rect width="141.4" height="28" fill="white" transform="translate(0.762939)"/>
</clipPath>
</defs>
</svg>
