<svg width="64" height="28" viewBox="0 0 64 28" fill="none" xmlns="http://www.w3.org/2000/svg">
<g clip-path="url(#clip0_7423_6639)">
<path d="M0.168986 7.99961C-0.473977 7.99961 -1.00265 7.81386 -1.41705 7.44237C-1.81704 7.05659 -2.01709 6.58509 -2.01709 6.02785C-2.01709 5.45633 -1.81704 4.98482 -1.41705 4.61333C-1.00265 4.22756 -0.473977 4.03467 0.168986 4.03467C0.797638 4.03467 1.31201 4.22756 1.7121 4.61333C2.12639 4.98482 2.3336 5.45633 2.3336 6.02785C2.3336 6.58509 2.12639 7.05659 1.7121 7.44237C1.31201 7.81386 0.797638 7.99961 0.168986 7.99961ZM1.99064 9.24267V21.2017H-1.67424V9.24267H1.99064Z" fill="#0E121B"/>
<path d="M7.66859 10.9359C8.02636 10.3787 8.51896 9.92858 9.1474 9.58566C9.77585 9.24274 10.5121 9.07129 11.3553 9.07129C12.3415 9.07129 13.2344 9.32133 14.0339 9.82141C14.8345 10.3215 15.463 11.0359 15.9203 11.9646C16.3921 12.8934 16.6275 13.9721 16.6275 15.2009C16.6275 16.4297 16.3921 17.5156 15.9203 18.4585C15.463 19.3873 14.8345 20.1088 14.0339 20.6231C13.2344 21.1233 12.3415 21.3733 11.3553 21.3733C10.5267 21.3733 9.79037 21.2018 9.1474 20.859C8.51896 20.516 8.02636 20.0731 7.66859 19.5301V26.9028H4.00391V9.24274H7.66859V10.9359ZM12.8984 15.2009C12.8984 14.2864 12.6412 13.572 12.1268 13.0576C11.627 12.529 11.0047 12.2646 10.2622 12.2646C9.53318 12.2646 8.912 12.529 8.39763 13.0576C7.89777 13.5863 7.64785 14.3079 7.64785 15.2223C7.64785 16.1367 7.89777 16.8583 8.39763 17.387C8.912 17.9156 9.53318 18.1799 10.2622 18.1799C10.9913 18.1799 11.6124 17.9156 12.1268 17.387C12.6412 16.844 12.8984 16.1154 12.8984 15.2009Z" fill="#0E121B"/>
<path d="M22.7721 21.3733C21.7289 21.3733 20.8007 21.1948 19.9866 20.8375C19.1715 20.4803 18.5286 19.9945 18.0577 19.3802C17.5859 18.7515 17.3214 18.0513 17.2644 17.2797H20.8868C20.9293 17.6941 21.1222 18.0299 21.4654 18.2871C21.8077 18.5443 22.2297 18.6729 22.7296 18.6729C23.1869 18.6729 23.5364 18.5871 23.7801 18.4157C24.0373 18.23 24.1659 17.9942 24.1659 17.7084C24.1659 17.3655 23.9865 17.1155 23.6297 16.9583C23.272 16.7868 22.6933 16.6011 21.8937 16.4011C21.0361 16.201 20.3216 15.9938 19.7502 15.7796C19.1788 15.5509 18.6862 15.2009 18.2714 14.7294C17.8576 14.2436 17.6502 13.5935 17.6502 12.779C17.6502 12.0932 17.8358 11.4717 18.2071 10.9144C18.5929 10.3429 19.1508 9.89285 19.8788 9.56422C20.6223 9.2356 21.5007 9.07129 22.5149 9.07129C24.0155 9.07129 25.1946 9.44278 26.0512 10.1858C26.9234 10.9287 27.4232 11.9146 27.5518 13.1434H24.1659C24.1078 12.729 23.9222 12.4004 23.608 12.1575C23.3083 11.9146 22.908 11.7932 22.4081 11.7932C21.9798 11.7932 21.6511 11.8788 21.4219 12.0504C21.1937 12.2075 21.0797 12.429 21.0797 12.7147C21.0797 13.0576 21.258 13.3148 21.6148 13.4863C21.986 13.6578 22.5585 13.8292 23.33 14.0006C24.2157 14.2293 24.9374 14.4579 25.4943 14.6865C26.0512 14.9008 26.5376 15.258 26.9514 15.7581C27.3807 16.2439 27.6016 16.9011 27.6161 17.7298C27.6161 18.43 27.416 19.0587 27.0157 19.6159C26.6299 20.1589 26.0657 20.5875 25.3232 20.9018C24.5942 21.2161 23.7438 21.3733 22.7721 21.3733Z" fill="#0E121B"/>
<path d="M41.024 9.24219V21.2013H37.3591V19.5725C36.9878 20.1012 36.4807 20.5298 35.8377 20.8584C35.2093 21.1727 34.5093 21.3298 33.7377 21.3298C32.8231 21.3298 32.0152 21.1299 31.3152 20.7298C30.6152 20.3154 30.0728 19.7224 29.6871 18.9509C29.3013 18.1793 29.1084 17.2721 29.1084 16.2291V9.24219H32.7515V15.7361C32.7515 16.5362 32.9589 17.1577 33.3727 17.6007C33.7875 18.0437 34.3444 18.2651 35.0444 18.2651C35.7589 18.2651 36.3231 18.0437 36.7379 17.6007C37.1527 17.1577 37.3591 16.5362 37.3591 15.7361V9.24219H41.024Z" fill="#0E121B"/>
<path d="M58.2731 9.11377C59.7592 9.11377 60.9383 9.56384 61.8094 10.464C62.6961 11.3641 63.1389 12.6144 63.1389 14.2146V21.2014H59.4948V14.7075C59.4948 13.936 59.2884 13.3431 58.8736 12.9287C58.4733 12.5001 57.9164 12.2857 57.2019 12.2857C56.4873 12.2857 55.9232 12.5001 55.5084 12.9287C55.1091 13.3431 54.909 13.936 54.909 14.7075V21.2014H51.2648V14.7075C51.2648 13.936 51.0585 13.3431 50.6436 12.9287C50.2433 12.5001 49.6865 12.2857 48.9719 12.2857C48.2574 12.2857 47.6933 12.5001 47.2785 12.9287C46.8792 13.3431 46.679 13.936 46.679 14.7075V21.2014H43.0142V9.24236H46.679V10.7426C47.0503 10.2425 47.5356 9.84961 48.1361 9.56384C48.7365 9.2638 49.4147 9.11377 50.1718 9.11377C51.0719 9.11377 51.8725 9.30666 52.5725 9.69244C53.287 10.0782 53.8439 10.6283 54.2442 11.3427C54.659 10.6855 55.2232 10.1497 55.9377 9.73531C56.6522 9.32095 57.431 9.11377 58.2731 9.11377Z" fill="#0E121B"/>
</g>
<defs>
<clipPath id="clip0_7423_6639">
<rect width="159.704" height="28" fill="white" transform="translate(-96.2407)"/>
</clipPath>
</defs>
</svg>
