<svg width="155" height="28" viewBox="0 0 155 28" fill="none" xmlns="http://www.w3.org/2000/svg">
<g clip-path="url(#clip0_7423_6663)">
<path d="M14.7627 28C22.4949 28 28.7627 21.7322 28.7627 14V4.2C28.7627 3.08609 28.3202 2.0178 27.5326 1.23015C26.7449 0.442499 25.6767 0 24.5627 0L15.4627 0V6.1418C15.4627 7.5432 15.5481 8.995 16.2831 10.1878C16.8093 11.0426 17.5132 11.7743 18.3471 12.3332C19.1809 12.892 20.1253 13.265 21.1159 13.4267L21.384 13.4701C21.4946 13.5079 21.5905 13.5793 21.6585 13.6743C21.7264 13.7693 21.7629 13.8832 21.7629 14C21.7629 14.1168 21.7264 14.2307 21.6585 14.3257C21.5905 14.4207 21.4946 14.4921 21.384 14.5299L21.1159 14.5733C19.6685 14.8098 18.3318 15.4949 17.2947 16.532C16.2576 17.5691 15.5725 18.9057 15.336 20.3532L15.2926 20.6213C15.2549 20.7318 15.1835 20.8278 15.0884 20.8957C14.9934 20.9636 14.8795 21.0002 14.7627 21.0002C14.6459 21.0002 14.5321 20.9636 14.437 20.8957C14.342 20.8278 14.2706 20.7318 14.2328 20.6213L14.1894 20.3532C14.0276 19.3625 13.6547 18.4182 13.0958 17.5844C12.537 16.7505 11.8054 16.0466 10.9505 15.5204C9.75774 14.7854 8.30594 14.7 6.90454 14.7H0.779541C1.14564 22.1067 7.26574 28 14.7627 28Z" fill="#0E121B"/>
<path d="M0.762939 13.3H6.90474C8.30614 13.3 9.75794 13.2146 10.9507 12.4796C11.8832 11.9051 12.668 11.1202 13.2425 10.1878C13.9775 8.995 14.0629 7.5432 14.0629 6.1418V0H4.96294C3.84903 0 2.78074 0.442499 1.99309 1.23015C1.20544 2.0178 0.762939 3.08609 0.762939 4.2L0.762939 13.3ZM33.2814 1.4C33.2814 1.7713 33.1339 2.1274 32.8714 2.38995C32.6088 2.6525 32.2527 2.8 31.8814 2.8C31.5101 2.8 31.154 2.6525 30.8915 2.38995C30.6289 2.1274 30.4814 1.7713 30.4814 1.4C30.4814 1.0287 30.6289 0.672602 30.8915 0.410051C31.154 0.1475 31.5101 0 31.8814 0C32.2527 0 32.6088 0.1475 32.8714 0.410051C33.1339 0.672602 33.2814 1.0287 33.2814 1.4ZM148.961 8.4728C152.874 8.4728 154.763 11.2063 154.763 14.3724V20.3189H150.667V15.078C150.667 13.643 150.144 12.4586 148.642 12.4586C147.141 12.4586 146.64 13.643 146.64 15.078V20.3182H142.544V15.078C142.544 13.643 142.044 12.4586 140.542 12.4586C139.04 12.4586 138.517 13.643 138.517 15.078V20.3182H134.422V14.3717C134.422 11.2056 136.31 8.4721 140.223 8.4721C142.362 8.4721 143.909 9.3149 144.615 10.7044C145.365 9.3149 147.004 8.4714 148.961 8.4714V8.4728ZM127.062 16.674C128.381 16.674 128.95 15.4665 128.95 14.0308V8.9278H133.045V14.532C133.045 17.8808 131.089 20.6605 127.062 20.6605C123.034 20.6605 121.078 17.8815 121.078 14.532V8.9278H125.173V14.0308C125.173 15.4658 125.742 16.674 127.062 16.674ZM115.055 20.6829C112.484 20.6829 110.823 19.7946 109.845 18.0635L112.803 16.4003C113.212 17.129 113.826 17.4937 114.85 17.4937C115.692 17.4937 116.079 17.1976 116.079 16.8329C116.079 15.4434 110.072 16.856 110.072 12.4369C110.072 10.2949 111.892 8.5638 114.987 8.5638C117.694 8.5638 119.174 9.8847 119.834 11.1608L116.875 12.8464C116.626 12.1632 115.851 11.753 115.078 11.753C114.486 11.753 114.168 12.0036 114.168 12.3452C114.168 13.7578 120.175 12.4593 120.175 16.7419C120.175 19.1338 117.831 20.6829 115.055 20.6829ZM100.746 25.5584H96.6503V14.6006C96.6503 11.1146 99.2669 8.5862 102.908 8.5862C106.457 8.5862 109.165 11.2973 109.165 14.6006C109.165 18.2455 106.753 20.6605 103.135 20.6605C102.293 20.6605 101.452 20.4099 100.746 20.0221V25.5584ZM102.908 16.8105C104.205 16.8105 105.069 15.8081 105.069 14.623C105.069 13.4162 104.205 12.4362 102.908 12.4362C101.611 12.4362 100.746 13.4162 100.746 14.6237C100.746 15.8081 101.611 16.8105 102.908 16.8105ZM92.5476 7.721C91.205 7.721 90.0906 6.6045 90.0906 5.2605C90.0906 3.9165 91.205 2.8 92.5476 2.8C93.8902 2.8 95.0053 3.9165 95.0053 5.2605C95.0053 6.6045 93.8902 7.721 92.5476 7.721ZM90.5001 8.9278H94.5958V20.3189H90.5001V8.9278ZM82.6419 20.6605C79.0922 20.6605 76.3846 17.927 76.3846 14.6006C76.3846 11.2973 79.0922 8.5638 82.6419 8.5638C86.1916 8.5638 88.8992 11.2973 88.8992 14.6006C88.8992 17.927 86.1916 20.6605 82.6419 20.6605ZM82.6419 16.8105C83.939 16.8105 84.8035 15.8081 84.8035 14.623C84.8035 13.4162 83.939 12.4138 82.6419 12.4138C81.3448 12.4138 80.4803 13.4162 80.4803 14.623C80.4803 15.8081 81.3448 16.8105 82.6419 16.8105ZM68.651 25.9C65.83 25.9 63.7818 24.647 62.7353 22.414L66.1254 20.5919C66.4894 21.3668 67.1719 22.1641 68.5824 22.1641C70.0622 22.1641 71.0401 21.2296 71.1542 19.5895C70.6082 20.0683 69.743 20.4323 68.4466 20.4323C65.2833 20.4323 62.7346 17.9949 62.7346 14.5775C62.7346 11.2749 65.4429 8.5862 68.9926 8.5862C72.6333 8.5862 75.2499 11.1153 75.2499 14.6006V19.1114C75.2499 23.212 72.4051 25.9 68.651 25.9ZM68.924 16.583C70.1525 16.583 71.0856 15.7395 71.0856 14.4865C71.0856 13.2566 70.1532 12.4362 68.924 12.4362C67.7179 12.4362 66.7624 13.2566 66.7624 14.4872C66.7624 15.7402 67.7179 16.5823 68.924 16.5823V16.583ZM55.7878 20.6605C52.2381 20.6605 49.5298 17.927 49.5298 14.6006C49.5298 11.2973 52.2381 8.5638 55.7878 8.5638C59.3368 8.5638 62.0451 11.2973 62.0451 14.6006C62.0451 17.927 59.3375 20.6605 55.7878 20.6605ZM55.7878 16.8105C57.0849 16.8105 57.9494 15.8081 57.9494 14.623C57.9494 13.4162 57.0849 12.4138 55.7878 12.4138C54.4907 12.4138 53.6262 13.4162 53.6262 14.623C53.6262 15.8081 54.4907 16.8105 55.7878 16.8105ZM42.072 4.942V16.4458H48.8529V20.3189H41.5029C38.9094 20.3189 37.8629 18.9518 37.8629 16.7874V4.942H42.072Z" fill="#0E121B"/>
</g>
<defs>
<clipPath id="clip0_7423_6663">
<rect width="154" height="28" fill="white" transform="translate(0.762939)"/>
</clipPath>
</defs>
</svg>
