<svg width="148" height="28" viewBox="0 0 148 28" fill="none" xmlns="http://www.w3.org/2000/svg">
<g clip-path="url(#clip0_7423_6679)">
<path d="M40.1558 21.5511H51.0389V18.2731H44.0239V5.92578H40.1558V21.5511Z" fill="#0E121B"/>
<path d="M57.4878 19.3663C55.9362 19.3663 55.1276 18.0114 55.1276 15.979C55.1276 13.9466 55.9362 12.5698 57.4878 12.5698C59.0394 12.5698 59.8698 13.9466 59.8698 15.979C59.8698 18.0114 59.0394 19.3663 57.4878 19.3663ZM57.5096 21.9013C61.1155 21.9013 63.4757 19.3444 63.4757 15.979C63.4757 12.6135 61.1155 10.0566 57.5096 10.0566C53.9256 10.0566 51.5217 12.6135 51.5217 15.979C51.5217 19.3444 53.9256 21.9013 57.5096 21.9013Z" fill="#0E121B"/>
<path d="M69.717 25.4201C71.3779 25.4201 72.8421 25.0486 73.8255 24.1745C74.7215 23.3659 75.3115 22.1421 75.3115 20.4594V10.363H71.9024V11.5649H71.8586C71.203 10.6252 70.1978 10.0352 68.7117 10.0352C65.9363 10.0352 64.0132 12.3516 64.0132 15.6297C64.0132 19.0607 66.3515 20.9401 68.8647 20.9401C70.2196 20.9401 71.0719 20.3938 71.7275 19.6508H71.8149V20.7653C71.8149 22.1202 71.1812 22.907 69.6733 22.907C68.4932 22.907 67.9031 22.4043 67.7065 21.8143H64.2536C64.6032 24.1526 66.6356 25.4201 69.717 25.4201ZM69.6951 18.2958C68.3621 18.2958 67.4879 17.2032 67.4879 15.5204C67.4879 13.8158 68.3621 12.7232 69.6951 12.7232C71.1812 12.7232 71.9679 13.9907 71.9679 15.4986C71.9679 17.072 71.2467 18.2958 69.6951 18.2958Z" fill="#0E121B"/>
<path d="M82.3223 19.3663C80.7706 19.3663 79.9621 18.0114 79.9621 15.979C79.9621 13.9466 80.7706 12.5698 82.3223 12.5698C83.8739 12.5698 84.7043 13.9466 84.7043 15.979C84.7043 18.0114 83.8739 19.3663 82.3223 19.3663ZM82.3441 21.9013C85.95 21.9013 88.3104 19.3444 88.3104 15.979C88.3104 12.6135 85.95 10.0566 82.3441 10.0566C78.7601 10.0566 76.3562 12.6135 76.3562 15.979C76.3562 19.3444 78.7601 21.9013 82.3441 21.9013Z" fill="#0E121B"/>
<path d="M89.3503 21.5511H92.9125V10.3621H89.3503V21.5511ZM89.3503 8.81046H92.9125V5.92578H89.3503V8.81046Z" fill="#0E121B"/>
<path d="M94.4578 25.2453H98.0199V20.3938H98.0636C98.7629 21.3335 99.7901 21.9017 101.232 21.9017C104.161 21.9017 106.106 19.5852 106.106 15.9575C106.106 12.592 104.292 10.0352 101.32 10.0352C99.7901 10.0352 98.6974 10.7126 97.9325 11.7179H97.8669V10.363H94.4578V25.2453ZM100.315 19.1481C98.7848 19.1481 97.9106 17.9025 97.9106 16.0886C97.9106 14.2748 98.6974 12.898 100.249 12.898C101.779 12.898 102.5 14.1655 102.5 16.0886C102.5 17.9899 101.669 19.1481 100.315 19.1481Z" fill="#0E121B"/>
<path d="M111.906 21.9017C114.834 21.9017 116.998 20.6342 116.998 18.1866C116.998 15.3237 114.681 14.8211 112.715 14.4933C111.294 14.2311 110.027 14.1218 110.027 13.3351C110.027 12.6357 110.704 12.3079 111.578 12.3079C112.562 12.3079 113.239 12.6139 113.37 13.6192H116.648C116.473 11.4119 114.769 10.0352 111.6 10.0352C108.956 10.0352 106.77 11.259 106.77 13.6192C106.77 16.2416 108.846 16.7661 110.791 17.0939C112.277 17.3561 113.632 17.4654 113.632 18.4707C113.632 19.1918 112.955 19.5852 111.884 19.5852C110.704 19.5852 109.961 19.0389 109.83 17.9243H106.464C106.574 20.3938 108.628 21.9017 111.906 21.9017Z" fill="#0E121B"/>
<path d="M121.836 21.8802C123.387 21.8802 124.371 21.2683 125.179 20.1756H125.245V21.5524H128.654V10.3633H125.092V16.6134C125.092 17.9465 124.349 18.8644 123.125 18.8644C121.988 18.8644 121.442 18.1869 121.442 16.9631V10.3633H117.902V17.7061C117.902 20.1974 119.257 21.8802 121.836 21.8802Z" fill="#0E121B"/>
<path d="M130.205 21.552H133.767V15.28C133.767 13.947 134.423 13.0073 135.537 13.0073C136.608 13.0073 137.111 13.7066 137.111 14.9085V21.552H140.673V15.28C140.673 13.947 141.307 13.0073 142.443 13.0073C143.514 13.0073 144.017 13.7066 144.017 14.9085V21.552H147.579V14.2748C147.579 11.7616 146.311 10.0352 143.776 10.0352C142.334 10.0352 141.132 10.6471 140.258 12.002H140.214C139.646 10.8 138.531 10.0352 137.067 10.0352C135.45 10.0352 134.379 10.8 133.68 11.9583H133.614V10.363H130.205V21.552Z" fill="#0E121B"/>
<path fill-rule="evenodd" clip-rule="evenodd" d="M7.04664 3.59353C6.15534 4.21676 5.34936 4.95362 4.64969 5.7831C7.50885 5.51766 11.1413 5.95109 15.3585 8.05973C19.862 10.3114 23.4884 10.3875 26.0121 9.90071C25.7831 9.20736 25.4948 8.541 25.1533 7.90753C22.2643 8.21224 18.5605 7.80891 14.2441 5.65076C11.5031 4.28028 9.087 3.71573 7.04664 3.59353ZM23.4657 5.5054C21.1842 2.95628 17.8686 1.35205 14.1783 1.35205C13.0946 1.35205 12.0431 1.49042 11.0407 1.75045C12.3983 2.12089 13.8406 2.66284 15.3585 3.42183C18.5188 5.00193 21.2472 5.5107 23.4657 5.5054ZM26.5517 12.3344C23.5027 12.9365 19.2924 12.8128 14.2441 10.2886C9.52447 7.92884 5.76805 7.95855 3.23459 8.52156C3.10382 8.55059 2.97613 8.58112 2.85152 8.61289C2.51983 9.33427 2.25506 10.0928 2.06509 10.8806C2.26799 10.8264 2.47766 10.7748 2.69399 10.7267C5.76752 10.0437 10.1102 10.0734 15.3585 12.6976C20.0782 15.0574 23.8346 15.0277 26.3681 14.4647C26.4549 14.4455 26.5405 14.4255 26.6246 14.405C26.6338 14.2085 26.6384 14.0108 26.6384 13.8121C26.6384 13.3121 26.609 12.819 26.5517 12.3344ZM26.2177 17.0345C23.1983 17.5623 19.1106 17.3597 14.2441 14.9265C9.52447 12.5667 5.76805 12.5964 3.23459 13.1595C2.67224 13.2844 2.16635 13.4366 1.72009 13.5972C1.71887 13.6687 1.71826 13.7403 1.71826 13.8121C1.71826 20.6936 7.29682 26.2722 14.1783 26.2722C19.9455 26.2722 24.7976 22.3541 26.2177 17.0345Z" fill="#0E121B"/>
</g>
<defs>
<clipPath id="clip0_7423_6679">
<rect width="147.778" height="28" fill="white" transform="translate(0.163086)"/>
</clipPath>
</defs>
</svg>
