<svg width="168" height="28" viewBox="0 0 168 28" fill="none" xmlns="http://www.w3.org/2000/svg">
<g clip-path="url(#clip0_7423_6652)">
<path d="M146.919 22.491V8.55249H150.572V11.0335H150.746C151.037 10.2106 151.523 9.56233 152.204 9.08858C152.886 8.61484 153.696 8.37793 154.635 8.37793C155.591 8.37793 156.402 8.619 157.066 9.10108C157.74 9.57483 158.188 10.219 158.413 11.0335H158.562C158.845 10.2273 159.36 9.58316 160.108 9.10108C160.856 8.619 161.737 8.37793 162.751 8.37793C164.047 8.37793 165.103 8.78939 165.917 9.61225C166.74 10.435 167.151 11.6028 167.151 13.1155V22.491H163.287V13.8885C163.287 13.1072 163.079 12.5254 162.664 12.1431C162.257 11.7607 161.745 11.5696 161.131 11.5696C160.432 11.5696 159.884 11.794 159.485 12.2428C159.094 12.6834 158.899 13.2652 158.899 13.9882V22.491H155.159V13.7888C155.159 13.1155 154.964 12.5794 154.573 12.1805C154.182 11.7732 153.672 11.5696 153.04 11.5696C152.608 11.5696 152.221 11.6776 151.881 11.8938C151.54 12.1099 151.269 12.409 151.07 12.7914C150.871 13.1654 150.771 13.6142 150.771 14.1379V22.491H146.919Z" fill="#0E121B"/>
<path d="M141.425 16.5683V8.55176H145.277V22.4902H141.574V19.9594H141.425C141.109 20.7656 140.59 21.4222 139.867 21.9292C139.143 22.4279 138.258 22.6731 137.212 22.6648C136.28 22.6648 135.458 22.457 134.743 22.0414C134.036 21.6175 133.484 21.015 133.085 20.2336C132.695 19.4524 132.499 18.5173 132.499 17.4285V8.55176H136.351V16.7553C136.351 17.5698 136.571 18.2181 137.012 18.7002C137.453 19.1739 138.039 19.4067 138.77 19.3983C139.235 19.3983 139.667 19.2945 140.066 19.0867C140.465 18.8706 140.789 18.5506 141.038 18.1267C141.296 17.7028 141.425 17.1833 141.425 16.5683Z" fill="#0E121B"/>
<path d="M131.193 12.5296L127.664 12.7415C127.573 12.301 127.328 11.9229 126.929 11.607C126.53 11.2828 125.994 11.1208 125.321 11.1208C124.723 11.1208 124.22 11.2455 123.812 11.4948C123.414 11.7441 123.214 12.0766 123.214 12.4922C123.214 12.8247 123.343 13.1114 123.601 13.3524C123.866 13.5852 124.32 13.768 124.96 13.901L127.49 14.3997C128.845 14.674 129.854 15.1186 130.519 15.7337C131.185 16.3487 131.516 17.1591 131.516 18.1648C131.516 19.0874 131.251 19.8936 130.719 20.5835C130.187 21.265 129.456 21.8011 128.525 22.1918C127.594 22.5741 126.526 22.7653 125.321 22.7653C123.476 22.7653 122.005 22.3787 120.908 21.6058C119.819 20.8328 119.183 19.7855 119.001 18.464L122.778 18.2645C122.903 18.8297 123.185 19.2578 123.625 19.5487C124.066 19.8396 124.631 19.985 125.321 19.985C125.994 19.985 126.538 19.8521 126.954 19.5861C127.378 19.3201 127.59 18.9835 127.59 18.5762C127.59 17.8864 126.992 17.4209 125.795 17.1799L123.389 16.6812C122.034 16.4069 121.024 15.9373 120.359 15.2724C119.695 14.6075 119.362 13.7555 119.362 12.7166C119.362 11.8189 119.607 11.046 120.098 10.3977C120.588 9.74938 121.274 9.25064 122.154 8.9016C123.044 8.55249 124.083 8.37793 125.271 8.37793C127.033 8.37793 128.417 8.75197 129.422 9.50005C130.436 10.2397 131.026 11.2496 131.193 12.5296Z" fill="#0E121B"/>
<path d="M105.002 27.7023V8.55249H108.792V10.9089H108.966C109.141 10.5265 109.39 10.14 109.715 9.74938C110.039 9.35875 110.463 9.03456 110.986 8.7769C111.51 8.51096 112.158 8.37793 112.931 8.37793C113.953 8.37793 114.888 8.64393 115.736 9.17586C116.592 9.69946 117.277 10.4932 117.792 11.5572C118.308 12.621 118.565 13.9509 118.565 15.5467C118.565 17.0926 118.316 18.4017 117.818 19.4739C117.319 20.5378 116.642 21.344 115.785 21.8926C114.938 22.4411 113.982 22.7154 112.918 22.7154C112.17 22.7154 111.535 22.5907 111.011 22.3414C110.488 22.092 110.06 21.7804 109.727 21.4063C109.403 21.024 109.149 20.6417 108.966 20.2594H108.854V27.7023H105.002ZM111.696 19.6484C112.328 19.6484 112.86 19.4739 113.292 19.1248C113.725 18.7757 114.053 18.2936 114.277 17.6786C114.502 17.0552 114.614 16.3404 114.614 15.5342C114.614 14.728 114.502 14.0215 114.277 13.4148C114.061 12.7997 113.737 12.3177 113.305 11.9686C112.872 11.6194 112.336 11.445 111.696 11.445C111.074 11.445 110.542 11.6153 110.101 11.9561C109.669 12.2886 109.337 12.7623 109.104 13.3774C108.88 13.9841 108.767 14.7031 108.767 15.5342C108.767 16.357 108.884 17.076 109.116 17.6911C109.349 18.3061 109.681 18.7882 110.114 19.1372C110.554 19.478 111.082 19.6484 111.696 19.6484Z" fill="#0E121B"/>
<path d="M99.508 22.4907V8.55227H103.36V22.4907H99.508ZM101.428 6.76947C100.854 6.76947 100.364 6.57829 99.9567 6.19596C99.5497 5.81363 99.3462 5.35234 99.3462 4.81209C99.3462 4.27184 99.5497 3.81471 99.9567 3.44068C100.364 3.05835 100.854 2.86719 101.428 2.86719C102.01 2.86719 102.504 3.05835 102.912 3.44068C103.319 3.81471 103.522 4.27184 103.522 4.81209C103.522 5.35234 103.319 5.81363 102.912 6.19596C102.504 6.57829 102.01 6.76947 101.428 6.76947Z" fill="#0E121B"/>
<path d="M91.5814 22.7653C90.1768 22.7653 88.9592 22.466 87.9288 21.8676C86.9066 21.2609 86.1172 20.4214 85.56 19.3492C85.0116 18.2687 84.7378 17.0137 84.7378 15.5841C84.7378 14.1379 85.0116 12.8787 85.56 11.8065C86.1172 10.726 86.9066 9.88651 87.9288 9.28807C88.9592 8.68135 90.1768 8.37793 91.5814 8.37793C92.9942 8.37793 94.2118 8.68135 95.234 9.28807C96.2644 9.88651 97.0538 10.726 97.6021 11.8065C98.1594 12.8787 98.438 14.1379 98.438 15.5841C98.438 17.0137 98.1594 18.2687 97.6021 19.3492C97.0538 20.4214 96.2644 21.2609 95.234 21.8676C94.2118 22.466 92.9942 22.7653 91.5814 22.7653ZM91.606 19.7482C92.2465 19.7482 92.7825 19.5695 93.2141 19.2121C93.6463 18.8464 93.9707 18.3476 94.1865 17.716C94.4112 17.0843 94.5231 16.3654 94.5231 15.5591C94.5231 14.7446 94.4112 14.0257 94.1865 13.4023C93.9707 12.7789 93.6463 12.2886 93.2141 11.9311C92.7825 11.5738 92.2465 11.395 91.606 11.395C90.9579 11.395 90.4137 11.5738 89.9733 11.9311C89.541 12.2886 89.2126 12.7789 88.9886 13.4023C88.7721 14.0257 88.6642 14.7446 88.6642 15.5591C88.6642 16.3654 88.7721 17.0843 88.9886 17.716C89.2126 18.3476 89.541 18.8464 89.9733 19.2121C90.4137 19.5695 90.9579 19.7482 91.606 19.7482Z" fill="#0E121B"/>
<path d="M76.8746 28.0016C74.9961 28.0016 73.5252 27.6275 72.4613 26.8794C71.3974 26.1398 70.7494 25.2171 70.5165 24.1117L74.0824 23.638C74.1903 23.9206 74.3603 24.1824 74.5932 24.4234C74.826 24.6644 75.1374 24.8556 75.528 24.9969C75.9186 25.1465 76.3966 25.2213 76.962 25.2213C77.8012 25.2213 78.495 25.0177 79.0433 24.6104C79.5924 24.2115 79.8662 23.5341 79.8662 22.5782V20.0224H79.7044C79.5377 20.4047 79.2844 20.7705 78.9436 21.1196C78.6029 21.4687 78.1666 21.7513 77.6346 21.9674C77.1027 22.1834 76.4669 22.2915 75.7274 22.2915C74.6806 22.2915 73.7287 22.0505 72.873 21.5684C72.0249 21.078 71.3434 20.33 70.8286 19.3243C70.3212 18.3185 70.0679 17.0469 70.0679 15.5093C70.0679 13.9218 70.3253 12.6003 70.8409 11.5447C71.3646 10.4891 72.0543 9.69946 72.9099 9.17586C73.7662 8.64393 74.7052 8.37793 75.7274 8.37793C76.5086 8.37793 77.1614 8.51096 77.6845 8.7769C78.2164 9.03456 78.6487 9.35875 78.9812 9.74938C79.3138 10.14 79.563 10.5265 79.7289 10.9089H79.8785V8.55249H83.6806V22.6406C83.6806 23.8208 83.3897 24.8099 82.8086 25.6078C82.2268 26.4057 81.4245 27.0041 80.4022 27.4031C79.38 27.8021 78.2041 28.0016 76.8746 28.0016ZM76.949 19.3866C77.8798 19.3866 78.5988 19.0417 79.1062 18.3518C79.621 17.662 79.8785 16.7062 79.8785 15.4843C79.8785 14.6698 79.7624 13.9633 79.5295 13.3649C79.3056 12.7582 78.9771 12.2886 78.5449 11.9561C78.1126 11.6153 77.5807 11.445 76.949 11.445C76.3174 11.445 75.7813 11.6194 75.3409 11.9686C74.9086 12.3093 74.5809 12.7831 74.3562 13.3898C74.1322 13.9966 74.0196 14.6947 74.0196 15.4843C74.0196 16.2823 74.1322 16.9763 74.3562 17.5664C74.5809 18.1482 74.9086 18.597 75.3409 18.9128C75.7813 19.2287 76.3174 19.3866 76.949 19.3866Z" fill="#0E121B"/>
<path d="M62.7164 22.7653C61.3119 22.7653 60.0944 22.466 59.0639 21.8676C58.0417 21.2609 57.2521 20.4214 56.6953 19.3492C56.1469 18.2687 55.8726 17.0137 55.8726 15.5841C55.8726 14.1379 56.1469 12.8787 56.6953 11.8065C57.2521 10.726 58.0417 9.88651 59.0639 9.28807C60.0944 8.68135 61.3119 8.37793 62.7164 8.37793C64.1293 8.37793 65.3468 8.68135 66.369 9.28807C67.3995 9.88651 68.189 10.726 68.7376 11.8065C69.2945 12.8787 69.5731 14.1379 69.5731 15.5841C69.5731 17.0137 69.2945 18.2687 68.7376 19.3492C68.189 20.4214 67.3995 21.2609 66.369 21.8676C65.3468 22.466 64.1293 22.7653 62.7164 22.7653ZM62.7413 19.7482C63.3813 19.7482 63.9174 19.5695 64.3495 19.2121C64.7817 18.8464 65.1058 18.3476 65.3219 17.716C65.5463 17.0843 65.6584 16.3654 65.6584 15.5591C65.6584 14.7446 65.5463 14.0257 65.3219 13.4023C65.1058 12.7789 64.7817 12.2886 64.3495 11.9311C63.9174 11.5738 63.3813 11.395 62.7413 11.395C62.0932 11.395 61.5488 11.5738 61.1083 11.9311C60.6762 12.2886 60.3479 12.7789 60.1235 13.4023C59.9074 14.0257 59.7994 14.7446 59.7994 15.5591C59.7994 16.3654 59.9074 17.0843 60.1235 17.716C60.3479 18.3476 60.6762 18.8464 61.1083 19.2121C61.5488 19.5695 62.0932 19.7482 62.7413 19.7482Z" fill="#0E121B"/>
<path d="M43.4829 22.4894V3.91309H47.3973V19.2479H55.3631V22.4894H43.4829Z" fill="#0E121B"/>
<path d="M25.9981 27.3171C30.3908 27.2275 33.9229 23.6343 33.9229 19.2168C33.9229 17.0685 33.0701 15.0081 31.5521 13.489L18.0734 0V8.38436C18.0734 9.78655 18.63 11.1314 19.6209 12.1229L22.7783 15.2828L22.7869 15.2912L28.0812 20.5896C28.2531 20.7616 28.2531 21.0406 28.0812 21.2126C27.9093 21.3847 27.6305 21.3847 27.4586 21.2126L25.6337 19.3863H8.75209L6.92719 21.2126C6.75526 21.3847 6.4765 21.3847 6.30457 21.2126C6.13263 21.0406 6.13263 20.7616 6.30456 20.5896L11.5989 15.2912L11.6075 15.2828L14.7649 12.1229C15.7558 11.1314 16.3123 9.78655 16.3123 8.38436V0L2.8336 13.489C1.31566 15.0081 0.462891 17.0685 0.462891 19.2168C0.462891 23.6343 3.99498 27.2275 8.38765 27.3171H25.9981Z" fill="#0E121B"/>
</g>
<defs>
<clipPath id="clip0_7423_6652">
<rect width="167.3" height="28" fill="white" transform="translate(0.462891)"/>
</clipPath>
</defs>
</svg>
