<svg width="79" height="28" viewBox="0 0 79 28" fill="none" xmlns="http://www.w3.org/2000/svg">
<g clip-path="url(#clip0_7423_6690)">
<path d="M28.3807 22.4C33.0199 22.4 36.7807 18.6392 36.7807 14C36.7807 9.36082 33.0199 5.6 28.3807 5.6C24.0268 5.6 20.4466 8.91247 20.0227 13.1547C18.3066 12.3785 16.4525 11.9146 14.5538 11.7926C15.6123 5.10938 21.3999 0 28.3807 0C36.1127 0 42.3807 6.26802 42.3807 14C42.3807 21.45 36.5616 27.5408 29.2207 27.9752V28H19.9943V26.7782C19.9943 25.1909 19.3398 23.6475 18.14 22.4935C16.9369 21.3363 15.2842 20.6691 13.5407 20.6691C11.7971 20.6691 10.1445 21.3363 8.94132 22.4935C7.74162 23.6475 7.08702 25.1909 7.08702 26.7782V28H0.940674V26.7483C0.940674 23.476 2.2987 20.3634 4.67406 18.0879C6.97343 15.8851 10.044 14.6371 13.2404 14.5635C13.3404 14.5612 13.4405 14.56 13.5407 14.56C13.6182 14.56 13.6957 14.5607 13.7732 14.5621C16.994 14.6196 20.0917 15.8695 22.4073 18.0879C23.69 19.3167 24.6761 20.7896 25.3118 22.4H28.3807Z" fill="#0E121B"/>
<path d="M16.1136 24.4457C16.7961 25.0393 17.1797 25.8444 17.1797 26.684V27.9986H9.89966V26.684C9.89966 25.8444 10.2832 25.0393 10.9658 24.4457C11.6484 23.852 12.5743 23.5186 13.5397 23.5186C14.505 23.5186 15.4309 23.852 16.1136 24.4457Z" fill="#0E121B"/>
<path d="M31.5878 12.6244C30.5756 12.6244 29.7552 11.8039 29.7552 10.7917V10.3335C29.7552 9.57442 29.1397 8.95898 28.3806 8.95898C27.6214 8.95898 27.0061 9.57435 27.0061 10.3335V10.7917C27.0061 11.8039 26.1855 12.6244 25.1733 12.6244H24.7151C23.956 12.6244 23.3406 13.2398 23.3406 13.999C23.3406 14.7581 23.956 15.3735 24.7151 15.3735H25.1733C26.1855 15.3735 27.0061 16.194 27.0061 17.2062V17.6645C27.0061 18.4236 27.6214 19.039 28.3806 19.039C29.1397 19.039 29.7552 18.4236 29.7552 17.6645V17.2062C29.7552 16.194 30.5756 15.3735 31.5878 15.3735H32.0461C32.8052 15.3735 33.4206 14.7581 33.4206 13.999C33.4206 13.2398 32.8052 12.6244 32.0461 12.6244H31.5878Z" fill="#0E121B"/>
<path d="M8.78074 2.24003C8.78074 3.47712 9.78363 4.47999 11.0207 4.47999H11.5807C12.5085 4.47999 13.2607 5.23216 13.2607 6.15999C13.2607 7.08785 12.5085 7.84 11.5807 7.84H11.0207C9.78363 7.84 8.78074 8.84289 8.78074 10.0799V10.64C8.78074 11.5679 8.02859 12.32 7.10075 12.32C6.17291 12.32 5.42075 11.5679 5.42075 10.64V10.08C5.42075 8.84289 4.41787 7.84 3.18075 7.84H2.62067C1.69284 7.84 0.940674 7.08785 0.940674 6.15999C0.940674 5.23216 1.69284 4.47999 2.62067 4.47999H3.18076C4.41787 4.47999 5.42075 3.47712 5.42075 2.24V1.68C5.42075 0.752164 6.17291 0 7.10075 0C8.02859 0 8.78074 0.752164 8.78074 1.68V2.24003Z" fill="#0E121B"/>
<path d="M82.1112 28.0001C79.0781 28.0001 76.8773 26.6533 75.7517 24.2535L79.3959 22.2945C79.7872 23.1271 80.5215 23.9842 82.0377 23.9842C83.6274 23.9842 84.6788 22.9801 84.8013 21.2171C84.2147 21.7313 83.2851 22.1231 81.8907 22.1231C78.4915 22.1231 75.7517 19.503 75.7517 15.8299C75.7517 12.2792 78.6623 9.38965 82.478 9.38965C86.391 9.38965 89.2036 12.1077 89.2036 15.8544V20.7028C89.2036 25.1105 86.1467 28.0001 82.1112 28.0001ZM82.4045 17.9847C83.7254 17.9847 84.7278 17.0787 84.7278 15.7319C84.7278 14.4096 83.7254 13.528 82.4045 13.528C81.1081 13.528 80.0812 14.4096 80.0812 15.7319C80.0812 17.0787 81.1081 17.9847 82.4045 17.9847Z" fill="#0E121B"/>
<path d="M68.2822 22.368C64.4669 22.368 61.5564 19.4295 61.5564 15.8544C61.5564 12.3037 64.4669 9.36523 68.2822 9.36523C72.0973 9.36523 75.0079 12.3037 75.0079 15.8544C75.0079 19.4295 72.0973 22.368 68.2822 22.368ZM68.2822 18.2296C69.6763 18.2296 70.6057 17.1522 70.6057 15.8789C70.6057 14.581 69.6763 13.5036 68.2822 13.5036C66.8882 13.5036 65.9588 14.581 65.9588 15.8789C65.9588 17.1522 66.8882 18.2296 68.2822 18.2296Z" fill="#0E121B"/>
<path d="M53.541 5.47168V17.8378H60.8294V22.0006H52.9296C50.1414 22.0006 49.0164 20.5314 49.0164 18.2051V5.47168H53.541Z" fill="#0E121B"/>
</g>
<defs>
<clipPath id="clip0_7423_6690">
<rect width="174.3" height="28" fill="white" transform="translate(0.940674)"/>
</clipPath>
</defs>
</svg>
