<svg width="54" height="54" viewBox="0 0 54 54" fill="none" xmlns="http://www.w3.org/2000/svg">
<g clip-path="url(#clip0_7616_53286)">
<path d="M4.94627 41.424C3.89118 40.8264 3.24121 39.7219 3.24121 38.5266L3.24121 15.4723C3.24121 14.277 3.89117 13.1725 4.94626 12.5748L25.2962 1.04766C26.3512 0.450007 27.6512 0.450004 28.7063 1.04766L44.3708 9.92082L39.2557 12.8183L27.0012 5.87678L8.35637 16.4381L8.35638 37.5607L20.5475 44.4664L20.5475 50.2613L4.94627 41.424Z" fill="#0E121B"/>
<path d="M45.5583 16.3884L50.2595 13.7254C50.5822 14.2426 50.7612 14.8449 50.7612 15.4723L50.7612 38.5266C50.7612 39.7219 50.1112 40.8264 49.0562 41.424L28.7063 52.9512C28.1609 53.2601 27.5501 53.4093 26.9415 53.3989L26.9413 28.3644C26.9413 27.466 27.4309 26.6361 28.2249 26.1886L45.5855 16.4038L45.5583 16.3884Z" fill="#0E121B"/>
</g>
<defs>
<clipPath id="clip0_7616_53286">
<rect width="52.8" height="52.8" fill="white" transform="translate(0.599976 0.599976)"/>
</clipPath>
</defs>
</svg>
