<svg width="561" height="340" viewBox="0 0 561 340" fill="none" xmlns="http://www.w3.org/2000/svg">
<g opacity="0.04">
<path d="M46.166 433.762C34.9557 427.412 28.0498 415.676 28.0498 402.976L28.0498 158.024C28.0498 145.324 34.9556 133.589 46.166 127.238L262.384 4.76261C273.594 -1.58746 287.406 -1.5875 298.616 4.76257L465.052 99.0399L410.703 129.826L280.5 56.072L82.3984 168.286L82.3984 392.714L211.93 466.087L211.93 527.658L46.166 433.762Z" fill="url(#paint0_linear_37_238)"/>
<path d="M477.669 167.758L527.619 139.464C531.047 144.959 532.95 151.359 532.95 158.024L532.95 402.976C532.95 415.676 526.044 427.411 514.834 433.762L298.616 556.237C292.821 559.52 286.332 561.106 279.865 560.995L279.863 295.003C279.863 285.457 285.065 276.64 293.501 271.885L477.958 167.922L477.669 167.758Z" fill="url(#paint1_linear_37_238)"/>
</g>
<defs>
<linearGradient id="paint0_linear_37_238" x1="280.5" y1="5.00002e-05" x2="280.5" y2="561" gradientUnits="userSpaceOnUse">
<stop stop-color="white"/>
<stop offset="0.761119" stop-color="white" stop-opacity="0"/>
</linearGradient>
<linearGradient id="paint1_linear_37_238" x1="280.5" y1="5.00002e-05" x2="280.5" y2="561" gradientUnits="userSpaceOnUse">
<stop stop-color="white"/>
<stop offset="0.761119" stop-color="white" stop-opacity="0"/>
</linearGradient>
</defs>
</svg>
